<?xml version="1.0" standalone="no"?><!DOCTYPE svg PUBLIC "-//W3C//DTD SVG 1.1//EN" "http://www.w3.org/Graphics/SVG/1.1/DTD/svg11.dtd"><svg t="1621061827421" class="icon" viewBox="0 0 1024 1024" version="1.1" xmlns="http://www.w3.org/2000/svg" p-id="4288" xmlns:xlink="http://www.w3.org/1999/xlink" width="200" height="200"><defs><style type="text/css"></style></defs><path d="M900.48 843.52H268.8L106.88 88.96H32a32 32 0 0 1-32-32A31.36 31.36 0 0 1 32 25.6h128L320 780.16h580.48a32 32 0 0 1 0 64z" p-id="4289"></path><path d="M904.32 698.88H272v-64h606.72L953.6 275.2H195.84v-64H992a32.64 32.64 0 0 1 24.96 12.16 31.36 31.36 0 0 1 6.4 26.24l-87.68 423.04a32 32 0 0 1-31.36 26.24z" p-id="4290"></path><path d="M232.96 372.48h702.08v63.36H232.96z" p-id="4291"></path><path d="M562.56 421.12h63.36v219.52h-63.36zM742.336 634.944l42.752-219.2 62.208 12.16-42.752 219.2zM340.736 427.136l62.208-12.096 42.56 219.328-62.208 12.032zM888.96 998.4a109.44 109.44 0 1 1 109.44-108.8 109.44 109.44 0 0 1-109.44 108.8z m0-154.88a46.08 46.08 0 1 0 46.08 46.08 46.08 46.08 0 0 0-46.08-46.08zM310.4 998.4a109.44 109.44 0 1 1 109.44-108.8 109.44 109.44 0 0 1-109.44 108.8z m0-154.88a46.08 46.08 0 1 0 46.08 46.08 46.08 46.08 0 0 0-46.08-46.08z" p-id="4292"></path></svg>